<svg width="133" height="23" viewBox="0 0 133 23" fill="none" xmlns="http://www.w3.org/2000/svg">
<g clip-path="url(#clip0_1027_8)">
<path fill-rule="evenodd" clip-rule="evenodd" d="M13.1583 10.7087C13.4527 10.6454 13.5621 10.6863 13.586 10.6978C13.5959 10.7183 13.6182 10.7857 13.6027 10.9445C13.5803 11.1752 13.4834 11.5015 13.2857 11.91C12.8933 12.721 12.1695 13.721 11.1953 14.6953C10.221 15.6695 9.22107 16.3933 8.41003 16.7857C8.00153 16.9834 7.67517 17.0802 7.44453 17.1027C7.2857 17.1182 7.21837 17.0958 7.1978 17.086C7.1863 17.0621 7.14543 16.9527 7.20873 16.6583C7.2854 16.3018 7.48963 15.8219 7.8346 15.2606C8.2525 14.5806 8.8499 13.8248 9.58737 13.0873C10.3248 12.3499 11.0806 11.7525 11.7606 11.3346C12.3219 10.9896 12.8018 10.7854 13.1583 10.7087V10.7087ZM1.47063 13.2468L6.25323 18.0294C6.6271 18.4032 7.13423 18.4726 7.5739 18.4298C8.0195 18.3863 8.50493 18.221 8.99077 17.986C9.9684 17.5129 11.0873 16.6889 12.1381 15.6381C13.1889 14.5873 14.0129 13.4684 14.486 12.4908C14.721 12.0049 14.8863 11.5195 14.9298 11.0739C14.9726 10.6342 14.9032 10.1271 14.5294 9.75323L9.74677 4.97062C9.28423 4.50809 8.6255 4.50858 8.09537 4.62259C7.53603 4.74288 6.91113 5.02806 6.27987 5.416C5.49927 5.89572 4.6627 6.56118 3.86193 7.36193C3.06118 8.16267 2.39572 8.99927 1.91601 9.77987C1.52807 10.4111 1.24288 11.036 1.12259 11.5954C1.00858 12.1255 1.0081 12.7842 1.47063 13.2468V13.2468Z" fill="white"/>
</g>
<path d="M35.0234 18L32.3516 8.18182H35.1065L36.6278 14.7784H36.7173L38.3026 8.18182H41.0064L42.6172 14.7401H42.7003L44.196 8.18182H46.9446L44.2791 18H41.3963L39.7088 11.8253H39.5874L37.8999 18H35.0234ZM48.3972 18V8.18182H51.1202V18H48.3972ZM49.7651 6.91619C49.3603 6.91619 49.013 6.78196 48.7232 6.51349C48.4377 6.24077 48.2949 5.91477 48.2949 5.53551C48.2949 5.16051 48.4377 4.83878 48.7232 4.57031C49.013 4.29758 49.3603 4.16122 49.7651 4.16122C50.1699 4.16122 50.5151 4.29758 50.8006 4.57031C51.0904 4.83878 51.2353 5.16051 51.2353 5.53551C51.2353 5.91477 51.0904 6.24077 50.8006 6.51349C50.5151 6.78196 50.1699 6.91619 49.7651 6.91619ZM61.4705 10.9815L58.9776 11.1349C58.935 10.9219 58.8434 10.7301 58.7028 10.5597C58.5621 10.3849 58.3768 10.2464 58.1467 10.1442C57.9208 10.0376 57.6502 9.98438 57.3349 9.98438C56.913 9.98438 56.5572 10.0739 56.2674 10.2528C55.9776 10.4276 55.8327 10.6619 55.8327 10.956C55.8327 11.1903 55.9265 11.3885 56.114 11.5504C56.3015 11.7124 56.6232 11.8423 57.0792 11.9403L58.8562 12.2983C59.8107 12.4943 60.5224 12.8097 60.9911 13.2443C61.4599 13.679 61.6942 14.25 61.6942 14.9574C61.6942 15.6009 61.5046 16.1655 61.1254 16.6513C60.7504 17.1371 60.2347 17.5163 59.5785 17.7891C58.9265 18.0575 58.1744 18.1918 57.3221 18.1918C56.0224 18.1918 54.9869 17.9212 54.2156 17.38C53.4485 16.8345 52.9989 16.093 52.8668 15.1555L55.5451 15.0149C55.6261 15.4112 55.8221 15.7138 56.1332 15.9226C56.4442 16.1271 56.8427 16.2294 57.3285 16.2294C57.8058 16.2294 58.1893 16.1378 58.479 15.9545C58.7731 15.767 58.9222 15.5263 58.9265 15.2322C58.9222 14.9851 58.8178 14.7827 58.6133 14.625C58.4087 14.4631 58.0934 14.3395 57.6673 14.2543L55.967 13.9155C55.0082 13.7237 54.2944 13.3913 53.8256 12.9183C53.3612 12.4453 53.1289 11.8423 53.1289 11.1094C53.1289 10.4787 53.2994 9.93537 53.6403 9.4794C53.9854 9.02344 54.4691 8.67188 55.0913 8.42472C55.7177 8.17756 56.4506 8.05398 57.2901 8.05398C58.5302 8.05398 59.506 8.31605 60.2177 8.8402C60.9336 9.36435 61.3512 10.0781 61.4705 10.9815ZM67.8833 18.1918C66.8734 18.1918 66.0041 17.9872 65.2754 17.5781C64.551 17.1648 63.9927 16.581 63.6007 15.8267C63.2086 15.0682 63.0126 14.1712 63.0126 13.1357C63.0126 12.1257 63.2086 11.2393 63.6007 10.4766C63.9927 9.71378 64.5446 9.11932 65.2562 8.69318C65.9721 8.26705 66.8116 8.05398 67.7747 8.05398C68.4224 8.05398 69.0254 8.15838 69.5836 8.36719C70.1461 8.57173 70.6362 8.88068 71.0538 9.29403C71.4757 9.70739 71.8038 10.2273 72.0382 10.8537C72.2726 11.4759 72.3897 12.2045 72.3897 13.0398V13.7876H64.0993V12.1001H69.8265C69.8265 11.7081 69.7413 11.3608 69.5708 11.0582C69.4004 10.7557 69.1639 10.5192 68.8613 10.3487C68.563 10.174 68.2157 10.0866 67.8194 10.0866C67.4061 10.0866 67.0396 10.1825 66.72 10.3743C66.4047 10.5618 66.1575 10.8153 65.9785 11.1349C65.7995 11.4503 65.7079 11.8018 65.7037 12.1896V13.794C65.7037 14.2798 65.7931 14.6996 65.9721 15.0533C66.1554 15.407 66.4132 15.6797 66.7456 15.8714C67.0779 16.0632 67.4721 16.1591 67.9281 16.1591C68.2306 16.1591 68.5076 16.1165 68.7591 16.0312C69.0105 15.946 69.2257 15.8182 69.4047 15.6477C69.5836 15.4773 69.72 15.2685 69.8137 15.0213L72.3322 15.1875C72.2044 15.7926 71.9423 16.321 71.546 16.7727C71.1539 17.2202 70.6468 17.5696 70.0247 17.821C69.4068 18.0682 68.693 18.1918 67.8833 18.1918ZM74.2179 4.90909H77.6312L81.2363 13.7045H81.3897L84.9949 4.90909H88.4082V18H85.7235V9.4794H85.6149L82.2271 17.9361H80.399L77.0112 9.44744H76.9025V18H74.2179V4.90909ZM95.0735 18.1918C94.0806 18.1918 93.2219 17.9808 92.4975 17.5589C91.7773 17.1328 91.2212 16.5405 90.8292 15.782C90.4371 15.0192 90.2411 14.1349 90.2411 13.1293C90.2411 12.1151 90.4371 11.2287 90.8292 10.4702C91.2212 9.70739 91.7773 9.11506 92.4975 8.69318C93.2219 8.26705 94.0806 8.05398 95.0735 8.05398C96.0664 8.05398 96.9229 8.26705 97.6431 8.69318C98.3675 9.11506 98.9258 9.70739 99.3178 10.4702C99.7099 11.2287 99.9059 12.1151 99.9059 13.1293C99.9059 14.1349 99.7099 15.0192 99.3178 15.782C98.9258 16.5405 98.3675 17.1328 97.6431 17.5589C96.9229 17.9808 96.0664 18.1918 95.0735 18.1918ZM95.0863 16.0824C95.538 16.0824 95.9151 15.9545 96.2177 15.6989C96.5202 15.4389 96.7482 15.0852 96.9016 14.6378C97.0593 14.1903 97.1381 13.6811 97.1381 13.1101C97.1381 12.5391 97.0593 12.0298 96.9016 11.5824C96.7482 11.1349 96.5202 10.7812 96.2177 10.5213C95.9151 10.2614 95.538 10.1314 95.0863 10.1314C94.6303 10.1314 94.2468 10.2614 93.9357 10.5213C93.6289 10.7812 93.3967 11.1349 93.239 11.5824C93.0856 12.0298 93.0089 12.5391 93.0089 13.1101C93.0089 13.6811 93.0856 14.1903 93.239 14.6378C93.3967 15.0852 93.6289 15.4389 93.9357 15.6989C94.2468 15.9545 94.6303 16.0824 95.0863 16.0824ZM104.4 12.3239V18H101.676V8.18182H104.272V9.91406H104.387C104.604 9.34304 104.968 8.89133 105.48 8.55895C105.991 8.2223 106.611 8.05398 107.34 8.05398C108.022 8.05398 108.616 8.20312 109.123 8.50142C109.63 8.79972 110.025 9.22585 110.306 9.77983C110.587 10.3295 110.728 10.9858 110.728 11.7486V18H108.005V12.2344C108.009 11.6335 107.855 11.1648 107.544 10.8281C107.233 10.4872 106.805 10.3168 106.26 10.3168C105.893 10.3168 105.569 10.3956 105.288 10.5533C105.011 10.7109 104.794 10.9411 104.636 11.2436C104.483 11.5419 104.404 11.902 104.4 12.3239ZM117.348 18.1918C116.338 18.1918 115.469 17.9872 114.74 17.5781C114.016 17.1648 113.458 16.581 113.066 15.8267C112.673 15.0682 112.477 14.1712 112.477 13.1357C112.477 12.1257 112.673 11.2393 113.066 10.4766C113.458 9.71378 114.009 9.11932 114.721 8.69318C115.437 8.26705 116.276 8.05398 117.24 8.05398C117.887 8.05398 118.49 8.15838 119.048 8.36719C119.611 8.57173 120.101 8.88068 120.519 9.29403C120.941 9.70739 121.269 10.2273 121.503 10.8537C121.737 11.4759 121.855 12.2045 121.855 13.0398V13.7876H113.564V12.1001H119.291C119.291 11.7081 119.206 11.3608 119.036 11.0582C118.865 10.7557 118.629 10.5192 118.326 10.3487C118.028 10.174 117.681 10.0866 117.284 10.0866C116.871 10.0866 116.504 10.1825 116.185 10.3743C115.869 10.5618 115.622 10.8153 115.443 11.1349C115.264 11.4503 115.173 11.8018 115.169 12.1896V13.794C115.169 14.2798 115.258 14.6996 115.437 15.0533C115.62 15.407 115.878 15.6797 116.21 15.8714C116.543 16.0632 116.937 16.1591 117.393 16.1591C117.695 16.1591 117.972 16.1165 118.224 16.0312C118.475 15.946 118.691 15.8182 118.869 15.6477C119.048 15.4773 119.185 15.2685 119.279 15.0213L121.797 15.1875C121.669 15.7926 121.407 16.321 121.011 16.7727C120.619 17.2202 120.112 17.5696 119.49 17.821C118.872 18.0682 118.158 18.1918 117.348 18.1918ZM125.049 21.6818C124.704 21.6818 124.38 21.6541 124.077 21.5987C123.779 21.5476 123.532 21.4815 123.336 21.4006L123.95 19.3679C124.269 19.4659 124.557 19.5192 124.812 19.5277C125.072 19.5362 125.296 19.4766 125.484 19.3487C125.675 19.2209 125.831 19.0036 125.95 18.6967L126.11 18.2812L122.588 8.18182H125.452L127.484 15.392H127.587L129.638 8.18182H132.521L128.705 19.0611C128.522 19.5895 128.273 20.0497 127.957 20.4418C127.646 20.8381 127.252 21.1428 126.775 21.3558C126.298 21.5732 125.722 21.6818 125.049 21.6818Z" fill="white"/>
<defs>
<clipPath id="clip0_1027_8">
<rect width="16" height="16" fill="white" transform="translate(0 3.5)"/>
</clipPath>
</defs>
</svg>
